<?xml version="1.0" encoding="UTF-8" standalone="no"?>
<svg
   width="900px"
   height="900px"
   viewBox="0 0 900 900"
   version="1.1"
   xml:space="preserve"
   id="SVGRoot"
   inkscape:version="1.4.3 (0d15f75042, 2025-12-25)"
   sodipodi:docname="io.github.PinkAvocadoDev.Animated-symbolic.svg"
   xmlns:inkscape="http://www.inkscape.org/namespaces/inkscape"
   xmlns:sodipodi="http://sodipodi.sourceforge.net/DTD/sodipodi-0.dtd"
   xmlns="http://www.w3.org/2000/svg"
   xmlns:svg="http://www.w3.org/2000/svg"><defs
   id="defs1" />
<sodipodi:namedview
   pagecolor="#a9a9a9"
   bordercolor="#292929"
   borderopacity="1"
   inkscape:showpageshadow="2"
   inkscape:pageopacity="0.0"
   inkscape:pagecheckerboard="0"
   inkscape:deskcolor="#232323"
   id="namedview1"
   inkscape:zoom="0.86111111"
   inkscape:cx="450"
   inkscape:cy="450"
   inkscape:window-width="1920"
   inkscape:window-height="1011"
   inkscape:window-x="0"
   inkscape:window-y="0"
   inkscape:window-maximized="1"
   inkscape:current-layer="layer1-6" />
<style
   type="text/css"
   id="style1">
g.prefab path {
  vector-effect:non-scaling-stroke;
  -inkscape-stroke:hairline;
  fill: none;
  fill-opacity: 1;
  stroke-opacity: 1;
  stroke: #00349c;
}
</style>
<g
   inkscape:groupmode="layer"
   id="layer1-6"
   inkscape:label="TV Test Pattern"
   transform="matrix(1.2757859,0,0,1.2757859,-130.41848,-116.21218)"
   style="display:inline"><ellipse
     style="fill:#000000;stroke:#77767b;stroke-width:0;stroke-linecap:round;stroke-linejoin:round"
     id="path3-5-3"
     cx="455.4841"
     cy="456.03207"
     rx="344.90344"
     ry="337.19336" /><ellipse
     style="fill:#4d4d4d;stroke:#77767b;stroke-width:0;stroke-linecap:round;stroke-linejoin:round"
     id="path3-8"
     cx="454.96774"
     cy="431.41934"
     rx="344.90344"
     ry="337.19336" /><rect
     style="fill:#666666;stroke:#77767b;stroke-width:0;stroke-linecap:round;stroke-linejoin:round"
     id="rect4-5"
     width="495.87094"
     height="472.64511"
     x="207.48387"
     y="192.7742"
     ry="94.388367" /><circle
     style="fill:#b3b3b3;stroke:#77767b;stroke-width:0;stroke-linecap:round;stroke-linejoin:round"
     id="path4-6"
     cx="455.2258"
     cy="432.83871"
     r="166" /><path
     sodipodi:type="star"
     style="fill:#1a1a1a;stroke:#77767b;stroke-width:0;stroke-linecap:round;stroke-linejoin:round"
     id="path5-1"
     inkscape:flatsided="false"
     sodipodi:sides="3"
     sodipodi:cx="368.12903"
     sodipodi:cy="343.74194"
     sodipodi:r1="177.2393"
     sodipodi:r2="106.34358"
     sodipodi:arg1="-2.1042493"
     sodipodi:arg2="-1.05819"
     inkscape:rounded="0.1"
     inkscape:randomized="0"
     d="m 278.00115,191.12892 c 13.28518,-7.86621 128.83784,52.35031 142.28411,59.93787 13.46722,7.59937 124.90446,75.46618 125.07447,90.92863 0.16974,15.43841 -109.75563,85.40169 -123.04978,93.25273 -13.31486,7.86326 -127.80786,70.43734 -141.28374,62.85334 -13.45492,-7.5722 -19.08222,-137.752 -19.23434,-153.19059 -0.15236,-15.46264 2.9034,-145.90352 16.20928,-153.78198 z"
     transform="matrix(0.68290058,0,0,0.68290058,191.95201,193.56108)" /></g><g
   inkscape:groupmode="layer"
   id="layer1"
   inkscape:label="TV Test Pattern"
   transform="matrix(1.2757859,0,0,1.2757859,-131.19289,-115.40556)"
   style="display:none"><ellipse
     style="fill:#2d1650;stroke:#77767b;stroke-width:0;stroke-linecap:round;stroke-linejoin:round"
     id="path3-5"
     cx="455.4841"
     cy="456.03207"
     rx="344.90344"
     ry="337.19336" /><ellipse
     style="fill:#7137c8;stroke:#77767b;stroke-width:0;stroke-linecap:round;stroke-linejoin:round"
     id="path3"
     cx="454.96774"
     cy="431.41934"
     rx="344.90344"
     ry="337.19336" /><rect
     style="fill:#aa87de;stroke:#77767b;stroke-width:0;stroke-linecap:round;stroke-linejoin:round"
     id="rect4"
     width="495.87094"
     height="472.64511"
     x="207.48387"
     y="192.7742"
     ry="94.388367" /><circle
     style="fill:#c6afe9;stroke:#77767b;stroke-width:0;stroke-linecap:round;stroke-linejoin:round"
     id="path4"
     cx="455.2258"
     cy="432.83871"
     r="166" /><path
     sodipodi:type="star"
     style="fill:#2d1650;stroke:#77767b;stroke-width:0;stroke-linecap:round;stroke-linejoin:round"
     id="path5"
     inkscape:flatsided="false"
     sodipodi:sides="3"
     sodipodi:cx="368.12903"
     sodipodi:cy="343.74194"
     sodipodi:r1="177.2393"
     sodipodi:r2="106.34358"
     sodipodi:arg1="-2.1042493"
     sodipodi:arg2="-1.05819"
     inkscape:rounded="0.1"
     inkscape:randomized="0"
     d="m 278.00115,191.12892 c 13.28518,-7.86621 128.83784,52.35031 142.28411,59.93787 13.46722,7.59937 124.90446,75.46618 125.07447,90.92863 0.16974,15.43841 -109.75563,85.40169 -123.04978,93.25273 -13.31486,7.86326 -127.80786,70.43734 -141.28374,62.85334 -13.45492,-7.5722 -19.08222,-137.752 -19.23434,-153.19059 -0.15236,-15.46264 2.9034,-145.90352 16.20928,-153.78198 z"
     transform="matrix(0.68290058,0,0,0.68290058,191.95201,193.56108)" /></g>
</svg>
